<svg xmlns="http://www.w3.org/2000/svg" viewBox="0 0 1347 646" width="1347" height="646" role="img" aria-label="Architecture — what a fresh install touches" font-family="-apple-system, BlinkMacSystemFont, &quot;Segoe UI&quot;, &quot;Noto Sans&quot;, Helvetica, Arial, sans-serif">
<title>Architecture — what a fresh install touches</title>
<desc>Two files changed, and neither is source. The blast radius is the resolver's choice and the test suite's reach.</desc>
<defs><pattern id="dots" width="18" height="18" patternUnits="userSpaceOnUse"><circle cx="1.5" cy="1.5" r="1" fill="rgba(140,149,159,.5)"/></pattern><marker id="mk-added" viewBox="0 0 10 10" refX="8" refY="5" markerWidth="6.5" markerHeight="6.5" orient="auto-start-reverse"><path d="M0,0 L10,5 L0,10 z" fill="#1f883d"/></marker><marker id="mko-added" viewBox="0 0 10 10" refX="10" refY="5" markerWidth="6.5" markerHeight="6.5" orient="auto-start-reverse"><path d="M2,1 L10,5 L2,9" fill="none" stroke="#1f883d" stroke-width="1.6" stroke-linecap="round" stroke-linejoin="round"/></marker><marker id="mk-modified" viewBox="0 0 10 10" refX="8" refY="5" markerWidth="6.5" markerHeight="6.5" orient="auto-start-reverse"><path d="M0,0 L10,5 L0,10 z" fill="#bf8700"/></marker><marker id="mko-modified" viewBox="0 0 10 10" refX="10" refY="5" markerWidth="6.5" markerHeight="6.5" orient="auto-start-reverse"><path d="M2,1 L10,5 L2,9" fill="none" stroke="#bf8700" stroke-width="1.6" stroke-linecap="round" stroke-linejoin="round"/></marker><marker id="mk-removed" viewBox="0 0 10 10" refX="8" refY="5" markerWidth="6.5" markerHeight="6.5" orient="auto-start-reverse"><path d="M0,0 L10,5 L0,10 z" fill="#cf222e"/></marker><marker id="mko-removed" viewBox="0 0 10 10" refX="10" refY="5" markerWidth="6.5" markerHeight="6.5" orient="auto-start-reverse"><path d="M2,1 L10,5 L2,9" fill="none" stroke="#cf222e" stroke-width="1.6" stroke-linecap="round" stroke-linejoin="round"/></marker><marker id="mk-neutral" viewBox="0 0 10 10" refX="8" refY="5" markerWidth="6.5" markerHeight="6.5" orient="auto-start-reverse"><path d="M0,0 L10,5 L0,10 z" fill="#8c959f"/></marker><marker id="mko-neutral" viewBox="0 0 10 10" refX="10" refY="5" markerWidth="6.5" markerHeight="6.5" orient="auto-start-reverse"><path d="M2,1 L10,5 L2,9" fill="none" stroke="#8c959f" stroke-width="1.6" stroke-linecap="round" stroke-linejoin="round"/></marker></defs>
<rect x="0" y="0" width="1347" height="646" rx="12" fill="#f4f5f7"/>
<rect x="0" y="0" width="1347" height="646" rx="12" fill="url(#dots)"/>
<g transform="translate(44.86,0)"><g><rect class="lanebox" x="16" y="44" width="404" height="586" rx="12" fill="rgba(255,255,255,.55)"/>
<text class="lanelabel" x="32" y="68" font-size="10" font-weight="700" letter-spacing=".12em" fill="#59636e">INSTALL · PIP / UV RESOLVE</text>
<rect class="lanebox" x="440" y="44" width="404" height="586" rx="12" fill="rgba(255,255,255,.55)"/>
<text class="lanelabel" x="456" y="68" font-size="10" font-weight="700" letter-spacing=".12em" fill="#59636e">DTCC_AGENT · MCP SERVER, IN-PROCESS</text>
<rect class="lanebox" x="864" y="44" width="404" height="586" rx="12" fill="rgba(255,255,255,.55)"/>
<text class="lanelabel" x="880" y="68" font-size="10" font-weight="700" letter-spacing=".12em" fill="#59636e">TEST SUITE · PYTEST</text></g>
<g><path class="edge edge-modified" d="M218,154 L218,206" marker-end="url(#mk-modified)" fill="none" stroke="#bf8700" stroke-width="1.5"/>
<path class="edge edge-added" d="M32,237 L19,237 C11.82,237 6,242.82 6,250 L6,452 C6,459.18 11.82,465 19,465 L32,465" marker-end="url(#mk-added)" fill="none" stroke="#1f883d" stroke-width="1.5"/>
<circle r="2.6" fill="#1f883d"><animateMotion dur="1.6s" repeatCount="indefinite" path="M32,237 L19,237 C11.82,237 6,242.82 6,250 L6,452 C6,459.18 11.82,465 19,465 L32,465"/></circle>
<path class="edge edge-removed" d="M404,237 L412,237 C416.42,237 420,240.58 420,245 L420,265.5 C420,281.24 432.76,294 448.5,294 L1236,294 C1254.78,294 1270,309.22 1270,328 L1270,480 C1270,498.78 1254.78,514 1236,514 L468.5,514 C452.76,514 440,526.76 440,542.5 L440,553 C440,562.94 431.94,571 422,571 L404,571" marker-end="url(#mk-removed)" fill="none" stroke="#cf222e" stroke-width="1.5" stroke-dasharray="5 4" opacity="0.7"/>
<path class="edge edge-added" d="M456,359 L443,359 C435.82,359 430,364.82 430,372 L430,452 C430,459.18 424.18,465 417,465 L404,465" marker-end="url(#mk-added)" fill="none" stroke="#1f883d" stroke-width="1.5"/>
<circle r="2.6" fill="#1f883d"><animateMotion dur="1.6s" repeatCount="indefinite" path="M456,359 L443,359 C435.82,359 430,364.82 430,372 L430,452 C430,459.18 424.18,465 417,465 L404,465"/></circle>
<path class="edge edge-removed" d="M828,359 L852.83,359 C864.52,359 874,368.48 874,380.17 C874,391.86 883.48,401.33 895.17,401.33 L1252,401.33 C1270.78,401.33 1286,416.56 1286,435.33 L1286,496 C1286,514.78 1270.78,530 1252,530 L478.5,530 C462.76,530 450,542.76 450,558.5 L450,564 C450,576.7 439.7,587 427,587 L404,587" marker-end="url(#mk-removed)" fill="none" stroke="#cf222e" stroke-width="1.5" stroke-dasharray="5 4" opacity="0.7"/>
<path class="edge edge-neutral context" d="M456,123 L433,123 C420.3,123 410,133.3 410,146 L410,320 C410,332.7 420.3,343 433,343 L456,343" marker-end="url(#mk-neutral)" fill="none" stroke="#8c959f" stroke-width="1.5" opacity="0.82"/>
<path class="edge edge-neutral context" d="M642,382 L642,398.33 C642,407.35 634.69,414.67 625.67,414.67 L547.67,414.67 C542.33,414.67 538,418.99 538,424.33 L538,434" marker-end="url(#mk-neutral)" fill="none" stroke="#8c959f" stroke-width="1.5" opacity="0.82"/>
<path class="edge edge-neutral faded context" d="M642,382 L642,385 C642,386.66 643.34,388 645,388 L715,388 C727.7,388 738,398.3 738,411 L738,434" marker-end="url(#mk-neutral)" fill="none" stroke="#8c959f" stroke-width="1.5" opacity="0.45"/>
<path class="edge edge-neutral context" d="M880,123 L857,123 C844.3,123 834,133.3 834,146 L834,462 C834,463.66 832.66,465 831,465 L828,465" marker-end="url(#mk-neutral)" fill="none" stroke="#8c959f" stroke-width="1.5" opacity="0.82"/>
<path class="glow" stroke="#1f883d" d="M1154,154 L1154,167 C1154,174.18 1148.18,180 1141,180 L881.33,180 C862.56,180 847.33,195.22 847.33,214 L847.33,333.33 C847.33,338.67 843.01,343 837.67,343 L828,343" fill="none" stroke-width="7" opacity="0.14"/>
<path class="edge edge-added hero" d="M1154,154 L1154,167 C1154,174.18 1148.18,180 1141,180 L881.33,180 C862.56,180 847.33,195.22 847.33,214 L847.33,333.33 C847.33,338.67 843.01,343 837.67,343 L828,343" marker-end="url(#mk-added)" fill="none" stroke="#1f883d" stroke-width="2.25"/>
<circle r="3" fill="#1f883d"><animateMotion dur="2.1s" repeatCount="indefinite" path="M1154,154 L1154,167 C1154,174.18 1148.18,180 1141,180 L881.33,180 C862.56,180 847.33,195.22 847.33,214 L847.33,333.33 C847.33,338.67 843.01,343 837.67,343 L828,343"/></circle>
<circle r="3" fill="#1f883d"><animateMotion dur="2.1s" begin="-1.4s" repeatCount="indefinite" path="M1154,154 L1154,167 C1154,174.18 1148.18,180 1141,180 L881.33,180 C862.56,180 847.33,195.22 847.33,214 L847.33,333.33 C847.33,338.67 843.01,343 837.67,343 L828,343"/></circle>
<circle r="3" fill="#1f883d"><animateMotion dur="2.1s" begin="-0.7s" repeatCount="indefinite" path="M1154,154 L1154,167 C1154,174.18 1148.18,180 1141,180 L881.33,180 C862.56,180 847.33,195.22 847.33,214 L847.33,333.33 C847.33,338.67 843.01,343 837.67,343 L828,343"/></circle>
<path class="edge edge-added" d="M1170,154 L1170,175 C1170,186.6 1160.6,196 1149,196 L894.67,196 C875.89,196 860.67,211.22 860.67,230 L860.67,394 C860.67,412.78 845.44,428 826.67,428 L557,428 C555.34,428 554,429.34 554,431 L554,434" marker-end="url(#mk-added)" fill="none" stroke="#1f883d" stroke-width="1.5"/>
<circle r="2.6" fill="#1f883d"><animateMotion dur="1.6s" repeatCount="indefinite" path="M1170,154 L1170,175 C1170,186.6 1160.6,196 1149,196 L894.67,196 C875.89,196 860.67,211.22 860.67,230 L860.67,394 C860.67,412.78 845.44,428 826.67,428 L557,428 C555.34,428 554,429.34 554,431 L554,434"/></circle></g>
<g><g class="cardsh" filter="drop-shadow(0 1px 2px rgba(31,35,40,.14))"><rect class="card card-modified" x="32" y="92" width="372" height="62" rx="10" fill="#ffffff" stroke-width="1" stroke="#bf8700" stroke-opacity="0.5"/>
<rect class="chip" x="46" y="110" width="26" height="26" rx="7" fill="#f1f3f5"/><g><path class="glyph-stroke" d="M52,119 h14" stroke="#59636e" stroke-width="1.4" fill="none"/>
<path class="glyph-stroke" d="M52,127 h14" stroke="#59636e" stroke-width="1.4" fill="none"/>
<circle class="glyph" fill="#59636e" cx="57" cy="119" r="2.2"/>
<circle class="glyph" fill="#59636e" cx="62" cy="127" r="2.2"/></g>
<text class="ntitle" x="82" y="119" font-size="13" font-weight="600" fill="#1f2328">pyproject.toml</text>
<text class="nsub" x="82" y="137" font-size="9.5" fill="#59636e" font-family="ui-monospace, SFMono-Regular, &quot;SF Mono&quot;, Menlo, Consolas, monospace">dependency declaration</text>
<g class="bdg bdg-neutral"><rect x="277.01" y="84" width="47.37" height="16" rx="8" fill="#f1f3f5" stroke="#d1d9e0" stroke-width="1"/><text x="300.7" y="95" text-anchor="middle" font-size="8.5" font-weight="700" letter-spacing=".06em" fill="#59636e">+4 / -1</text></g>
<g class="bdg bdg-modified"><rect x="330.38" y="84" width="66.62" height="16" rx="8" fill="#fae17d" stroke="rgba(154,103,0,.55)" stroke-width="1"/><text x="363.69" y="95" text-anchor="middle" font-size="8.5" font-weight="700" letter-spacing=".06em" fill="#7d4e00">CHANGED</text></g></g>
<g class="cardsh context" filter="drop-shadow(0 1px 2px rgba(31,35,40,.14))" opacity="0.82"><rect class="card" x="32" y="206" width="372" height="62" rx="10" fill="#ffffff" stroke-width="1" stroke="#d1d9e0"/>
<rect class="chip" x="46" y="224" width="26" height="26" rx="7" fill="#f1f3f5"/><g><circle class="glyph" fill="#59636e" cx="54" cy="237" r="1.8"/>
<circle class="glyph" fill="#59636e" cx="59" cy="237" r="1.8"/>
<circle class="glyph" fill="#59636e" cx="64" cy="237" r="1.8"/></g>
<text class="ntitle" x="82" y="233" font-size="13" font-weight="600" fill="#1f2328">Dependency resolver</text>
<text class="nsub" x="82" y="251" font-size="9.5" fill="#59636e" font-family="ui-monospace, SFMono-Regular, &quot;SF Mono&quot;, Menlo, Consolas, monospace">pip install / uv pip install</text></g>
<g class="cardsh" filter="drop-shadow(0 1px 2px rgba(31,35,40,.14))"><rect class="card card-added" x="32" y="434" width="372" height="62" rx="10" fill="#ffffff" stroke-width="1" stroke="#1f883d" stroke-opacity="0.55"/>
<rect class="chip" x="46" y="452" width="26" height="26" rx="7" fill="#f1f3f5"/><g><rect class="glyph-stroke" x="51" y="459" width="16" height="12" rx="2" stroke="#59636e" stroke-width="1.4" fill="none"/>
<path class="glyph-stroke" d="M51,461 l8,6 8,-6" stroke="#59636e" stroke-width="1.4" fill="none"/></g>
<text class="ntitle" x="82" y="461" font-size="13" font-weight="600" fill="#1f2328">mcp 1.x</text>
<text class="nsub" x="82" y="479" font-size="9.5" fill="#59636e" font-family="ui-monospace, SFMono-Regular, &quot;SF Mono&quot;, Menlo, Consolas, monospace">mcp.server.fastmcp.FastMCP</text>
<g class="bdg bdg-neutral"><rect x="294.32" y="426" width="56.13" height="16" rx="8" fill="#f1f3f5" stroke="#d1d9e0" stroke-width="1"/><text x="322.39" y="437" text-anchor="middle" font-size="8.5" font-weight="700" letter-spacing=".06em" fill="#59636e">resolved</text></g>
<g class="bdg bdg-added"><rect x="356.45" y="426" width="40.55" height="16" rx="8" fill="#b9f0c4" stroke="rgba(31,136,61,.55)" stroke-width="1"/><text x="376.73" y="437" text-anchor="middle" font-size="8.5" font-weight="700" letter-spacing=".06em" fill="#116329">NEW</text></g></g>
<g class="cardsh ghost" filter="drop-shadow(0 1px 2px rgba(31,35,40,.14))" opacity="0.55"><rect class="card" x="32" y="548" width="372" height="62" rx="10" fill="#ffffff" stroke-width="1" stroke="#cf222e" stroke-dasharray="4 3" stroke-opacity="0.6"/>
<rect class="chip" x="46" y="566" width="26" height="26" rx="7" fill="#f1f3f5"/><g><rect class="glyph-stroke" x="51" y="573" width="16" height="12" rx="2" stroke="#59636e" stroke-width="1.4" fill="none"/>
<path class="glyph-stroke" d="M51,575 l8,6 8,-6" stroke="#59636e" stroke-width="1.4" fill="none"/></g>
<text class="ntitle strike" x="82" y="575" font-size="13" font-weight="600" fill="#1f2328" text-decoration="line-through">mcp 2.2.0</text>
<text class="nsub" x="82" y="593" font-size="9.5" fill="#59636e" font-family="ui-monospace, SFMono-Regular, &quot;SF Mono&quot;, Menlo, Consolas, monospace">FastMCP renamed to MCPServer</text>
<g class="bdg bdg-neutral"><rect x="222.58" y="540" width="101.3" height="16" rx="8" fill="#f1f3f5" stroke="#d1d9e0" stroke-width="1"/><text x="273.23" y="551" text-anchor="middle" font-size="8.5" font-weight="700" letter-spacing=".06em" fill="#59636e">no longer resolved</text></g>
<g class="bdg bdg-removed"><rect x="329.88" y="540" width="67.12" height="16" rx="8" fill="#ffcecb" stroke="rgba(207,34,46,.5)" stroke-width="1"/><text x="363.44" y="551" text-anchor="middle" font-size="8.5" font-weight="700" letter-spacing=".06em" fill="#a40e26">REMOVED</text></g></g>
<g class="cardsh context" filter="drop-shadow(0 1px 2px rgba(31,35,40,.14))" opacity="0.82"><rect class="card" x="456" y="92" width="372" height="62" rx="10" fill="#ffffff" stroke-width="1" stroke="#d1d9e0"/>
<rect class="chip" x="470" y="110" width="26" height="26" rx="7" fill="#f1f3f5"/><g><text class="glyph" x="483" y="127.5" text-anchor="middle" fill="#59636e" font-size="11" font-family="ui-monospace, SFMono-Regular, &quot;SF Mono&quot;, Menlo, Consolas, monospace">{ }</text></g>
<text class="ntitle" x="506" y="119" font-size="13" font-weight="600" fill="#1f2328">__main__.py</text>
<text class="nsub" x="506" y="137" font-size="9.5" fill="#59636e" font-family="ui-monospace, SFMono-Regular, &quot;SF Mono&quot;, Menlo, Consolas, monospace">python -m dtcc_agent</text></g>
<g class="cardsh context" filter="drop-shadow(0 1px 2px rgba(31,35,40,.14))" opacity="0.82"><rect class="card" x="456" y="320" width="372" height="62" rx="10" fill="#ffffff" stroke-width="1" stroke="#d1d9e0"/>
<rect class="chip" x="470" y="338" width="26" height="26" rx="7" fill="#f1f3f5"/><g><rect class="glyph-stroke" x="476.5" y="344.5" width="13" height="13" rx="3" stroke="#59636e" stroke-width="1.4" fill="none"/>
<circle class="glyph" fill="#59636e" cx="483" cy="351" r="2"/></g>
<text class="ntitle" x="506" y="347" font-size="13" font-weight="600" fill="#1f2328">server.py</text>
<text class="nsub" x="506" y="365" font-size="9.5" fill="#59636e" font-family="ui-monospace, SFMono-Regular, &quot;SF Mono&quot;, Menlo, Consolas, monospace">FastMCP(&quot;dtcc-agent&quot;)</text></g>
<g class="cardsh context" filter="drop-shadow(0 1px 2px rgba(31,35,40,.14))" opacity="0.82"><rect class="card" x="456" y="434" width="180" height="62" rx="10" fill="#ffffff" stroke-width="1" stroke="#d1d9e0"/>
<rect class="chip" x="470" y="452" width="26" height="26" rx="7" fill="#f1f3f5"/><g><text class="glyph" x="483" y="469.5" text-anchor="middle" fill="#59636e" font-size="11" font-family="ui-monospace, SFMono-Regular, &quot;SF Mono&quot;, Menlo, Consolas, monospace">{ }</text></g>
<text class="ntitle" x="506" y="461" font-size="11.5" font-weight="600" fill="#1f2328">22 MCP tools</text>
<text class="nsub" x="506" y="479" font-size="9.5" fill="#59636e" font-family="ui-monospace, SFMono-Regular, &quot;SF Mono&quot;, Menlo, Consolas, monospace">geocode, run_simula…</text></g>
<g class="cardsh context" filter="drop-shadow(0 1px 2px rgba(31,35,40,.14))" opacity="0.82"><rect class="card" x="648" y="434" width="180" height="62" rx="10" fill="#ffffff" stroke-width="1" stroke="#d1d9e0"/>
<rect class="chip" x="662" y="452" width="26" height="26" rx="7" fill="#f1f3f5"/><g><text class="glyph" x="675" y="469.5" text-anchor="middle" fill="#59636e" font-size="11" font-family="ui-monospace, SFMono-Regular, &quot;SF Mono&quot;, Menlo, Consolas, monospace">{ }</text></g>
<text class="ntitle" x="698" y="461" font-size="10.5" font-weight="600" fill="#1f2328">registry, dispatcher, r…</text>
<text class="nsub" x="698" y="479" font-size="9.5" fill="#59636e" font-family="ui-monospace, SFMono-Regular, &quot;SF Mono&quot;, Menlo, Consolas, monospace">and serializers, di…</text></g>
<g class="cardsh context" filter="drop-shadow(0 1px 2px rgba(31,35,40,.14))" opacity="0.82"><rect class="card" x="880" y="92" width="180" height="62" rx="10" fill="#ffffff" stroke-width="1" stroke="#d1d9e0"/>
<rect class="chip" x="894" y="110" width="26" height="26" rx="7" fill="#f1f3f5"/><g><path class="glyph-stroke" d="M901,123 l4,4 l8,-8" stroke="#59636e" stroke-width="1.4" fill="none"/></g>
<text class="ntitle" x="930" y="119" font-size="11.5" font-weight="600" fill="#1f2328">Existing tests</text>
<text class="nsub" x="930" y="137" font-size="9.5" fill="#59636e" font-family="ui-monospace, SFMono-Regular, &quot;SF Mono&quot;, Menlo, Consolas, monospace">12 files</text>
<g class="bdg bdg-neutral"><rect x="983.32" y="84" width="69.68" height="16" rx="8" fill="#f1f3f5" stroke="#d1d9e0" stroke-width="1"/><text x="1018.16" y="95" text-anchor="middle" font-size="8.5" font-weight="700" letter-spacing=".06em" fill="#59636e">112 passed</text></g></g>
<g class="cardsh" filter="drop-shadow(0 1px 2px rgba(31,35,40,.14))"><rect class="card card-added" x="1072" y="92" width="180" height="62" rx="10" fill="#ffffff" stroke-width="1" stroke="#1f883d" stroke-opacity="0.55"/>
<rect class="chip" x="1086" y="110" width="26" height="26" rx="7" fill="#f1f3f5"/><g><path class="glyph-stroke" d="M1093,123 l4,4 l8,-8" stroke="#59636e" stroke-width="1.4" fill="none"/></g>
<text class="ntitle" x="1122" y="119" font-size="11" font-weight="600" fill="#1f2328">test_server_import.py</text>
<text class="nsub" x="1122" y="137" font-size="9.5" fill="#59636e" font-family="ui-monospace, SFMono-Regular, &quot;SF Mono&quot;, Menlo, Consolas, monospace">10 tests</text>
<g class="bdg bdg-added"><rect x="1204.45" y="84" width="40.55" height="16" rx="8" fill="#b9f0c4" stroke="rgba(31,136,61,.55)" stroke-width="1"/><text x="1224.73" y="95" text-anchor="middle" font-size="8.5" font-weight="700" letter-spacing=".06em" fill="#116329">NEW</text></g></g></g>
<g><g><rect class="lpill" x="176.27" y="172.5" width="83.46" height="15" rx="7.5" fill="#ffffff" stroke="#d8dee4" stroke-width="1"/><text class="ltext ltext-modified" x="218" y="183.5" text-anchor="middle" font-size="9.5" font-weight="600" fill="#7d4e00">mcp&gt;=1.0.0,&lt;2</text></g>
<g><rect class="lpill" x="-28.86" y="343.5" width="69.72" height="15" rx="7.5" fill="#ffffff" stroke="#d8dee4" stroke-width="1"/><text class="ltext ltext-added" x="6" y="354.5" text-anchor="middle" font-size="9.5" font-weight="600" fill="#116329">resolves 1.x</text></g>
<g><rect class="lpill" x="802.63" y="286.5" width="79.25" height="15" rx="7.5" fill="#ffffff" stroke="#d8dee4" stroke-width="1"/><text class="ltext ltext-removed" x="842.25" y="297.5" text-anchor="middle" font-size="9.5" font-weight="600" fill="#a40e26">resolved 2.2.0</text></g>
<g><rect class="lpill" x="374.5" y="404.5" width="111.01" height="15" rx="7.5" fill="#ffffff" stroke="#d8dee4" stroke-width="1"/><text class="ltext ltext-added" x="430" y="415.5" text-anchor="middle" font-size="9.5" font-weight="600" fill="#116329">import FastMCP · ok</text></g>
<g><rect class="lpill" x="807.45" y="522.5" width="115.61" height="15" rx="7.5" fill="#ffffff" stroke="#d8dee4" stroke-width="1"/><text class="ltext ltext-removed" x="865.25" y="533.5" text-anchor="middle" font-size="9.5" font-weight="600" fill="#a40e26">ModuleNotFoundError</text></g>
<g><rect class="lpill" x="372.35" y="225.5" width="75.3" height="15" rx="7.5" fill="#ffffff" stroke="#d8dee4" stroke-width="1"/><text class="ltext" x="410" y="236.5" text-anchor="middle" font-size="9.5" font-weight="600" fill="#59636e">server.main()</text></g>
<g><rect class="lpill" x="538.38" y="407.17" width="96.58" height="15" rx="7.5" fill="#ffffff" stroke="#d8dee4" stroke-width="1"/><text class="ltext" x="586.67" y="418.17" text-anchor="middle" font-size="9.5" font-weight="600" fill="#59636e">registers at import</text></g>
<g><rect class="lpill" x="805.57" y="303.5" width="56.86" height="15" rx="7.5" fill="#ffffff" stroke="#d8dee4" stroke-width="1"/><text class="ltext" x="834" y="314.5" text-anchor="middle" font-size="9.5" font-weight="600" fill="#59636e">112 tests</text></g>
<g><rect class="lpill" x="960.5" y="172.5" width="101.33" height="15" rx="7.5" fill="#ffffff" stroke="#d8dee4" stroke-width="1"/><text class="ltext ltext-added" x="1011.17" y="183.5" text-anchor="middle" font-size="9.5" font-weight="600" fill="#116329">import + list_tools()</text></g>
<g><rect class="lpill" x="636.96" y="420.5" width="110.02" height="15" rx="7.5" fill="#ffffff" stroke="#d8dee4" stroke-width="1"/><text class="ltext ltext-added" x="691.97" y="431.5" text-anchor="middle" font-size="9.5" font-weight="600" fill="#116329">asserts 22 registered</text></g></g></g>
</svg>